<svg id="Capa_1" data-name="Capa 1" xmlns="http://www.w3.org/2000/svg" viewBox="0 0 944.55242 339">
  <defs>
    <style>
      .cls-1, .cls-3 {
        fill: #5d5d5f;
      }

      .cls-1, .cls-2 {
        fill-rule: evenodd;
      }

      .cls-2, .cls-4 {
        fill: #fff;
      }

      .cls-5 {
        fill: #dddc25;
      }

      .cls-6 {
        fill: #a1c52a;
      }

      .cls-7 {
        fill: #51ad32;
      }

      .cls-8 {
        fill: none;
      }
    </style>
  </defs>
  <title>ERcloud</title>
  <g>
    <g>
      <g>
        <path class="cls-1" d="M696.48109,133.386c-.27391,1.7168-.4569,3.45566-.83885,5.14584q-2.51466,11.144-5.13257,22.26325c-3.4462,14.6772-6.97226,29.33362-10.34236,44.02874a9.82379,9.82379,0,0,1-9.74675,7.9827c-58.37612-.06842-117.026-.95047-174.78346-.49361-3.849.0013-7.85393-.20113-11.14657-2.4035a10.78695,10.78695,0,0,1-4.95575-10.91033c.71233-5.33916,1.99336-10.60742,3.19693-15.86543q6.494-28.34813,13.112-56.666c1.24167-5.336,4.96669-8.41635,10.27358-8.42206q38.71146-.04188,77.42015-.00948c.25792,0,.517.04375.91127.0792-.40521,1.79092-.78842,3.52161-1.19124,5.24723-.71609,3.0646-1.50212,6.11388-2.1346,9.19678-.2211,1.06321-.62027,1.34651-1.63595,1.34586q-26.639-.04654-53.27421-.01389a19.203,19.203,0,0,0-7.66021,1.28821,12.1305,12.1305,0,0,0-7.4684,8.76313q-5.10855,21.67069-10.20365,43.34594c-1.08937,4.64818,1.518,8.4836,6.35212,9.32428a20.4764,20.4764,0,0,0,3.48921.28771c24.44788.01649,73.34135.04193,73.34135.04193l18.195-80.24159s56.79828,1.31872,80.75491,1.35858a23.63163,23.63163,0,0,1,5.37819.63722c4.59581,1.09294,7.23261,4.27218,7.82344,9.13264a10.2985,10.2985,0,0,0,.26649,1.10878ZM633.81,196.912v-.0431c6.42342,0,12.85037.17631,19.26513-.05323,5.34133-.19268,9.312-2.88829,11.39865-8.13864a25.60131,25.60131,0,0,0,1.15691-3.53693c3.08513-13.24266,6.18748-26.48273,9.1842-39.74629,1.47874-6.538-2.45377-11.50575-8.93607-11.50952q-17.51076-.00857-35.02377.01078a17.37373,17.37373,0,0,0-3.26323.27512c-6.29187,1.209-9.85478,5.38616-11.39376,11.55132-1.35461,5.42536-2.53239,10.89825-3.779,16.35218-1.80673,7.87819-3.719,15.73158-5.37694,23.64274-1.36329,6.4891,2.48335,11.19557,8.86124,11.19557Q624.85675,196.91392,633.81,196.912Z" transform="translate(-40.44758)"/>
        <polygon class="cls-2" points="634.76 252.352 537.206 228.248 568.593 90.178 669.213 113.792 634.76 252.352"/>
        <path class="cls-3" d="M611.1847,75.57381l18.41207-.03919L600.89113,207.0011l-19.52759-.29394Z" transform="translate(-40.44758)"/>
        <polygon class="cls-1" points="560.306 212.179 483.895 212.313 484.351 197.845 559.847 197.845 560.306 212.179"/>
        <g>
          <g>
            <path class="cls-1" d="M619.48973,192.42c1.19011.00232,1.43573-.38181,1.64085-1.44854.53664-2.76389,1.29815-5.48844,1.98092-8.22606,1.889-7.54359,3.8049-15.08008,5.67047-22.63014,2.82241-11.43273,5.58458-22.88085,8.43754-34.30625.85849-3.44222,2.62949-6.27294,6.44669-7.27931a11.613,11.613,0,0,1,2.90705-.3509q35.93514-.02675,71.86512.01137a24.99845,24.99845,0,0,1,5.37932.60013c4.59582,1.02849,8.29925,4.55032,8.29925,9.8621a223.90323,223.90323,0,0,1-6.18062,29.7525c-3.44494,13.81164-6.97351,27.60373-10.34237,41.43394a9.69043,9.69043,0,0,1-9.74675,7.50962M616.55074,131.8349m52.68716,60.55882v-.043c6.42217,0,12.85037.16714,19.26386-.04887,5.34134-.18131,9.312-2.71673,11.39867-7.65819a22.96125,22.96125,0,0,0,1.1569-3.32822c3.08513-12.46232,6.18749-24.92158,9.18421-37.40307,1.47874-6.15175-2.45505-10.82771-8.93607-10.83q-17.51247-.0099-35.02253.00892a18.64975,18.64975,0,0,0-3.26321.25889c-6.292,1.13894-9.856,5.069-11.395,10.8701-1.35335,5.10664-2.5324,10.25678-3.78023,15.38907-1.80548,7.41237-3.71773,14.80323-5.37568,22.24724-1.36216,6.107,2.48448,10.536,8.86112,10.53717Z" transform="translate(-40.44758)"/>
            <path class="cls-2" d="M667.83156,192.09368h-17.908c-6.37664-.00123-10.22327-4.43015-8.86112-10.53717,1.658-7.444,3.5702-14.83487,5.37568-22.24724,1.24784-5.1323,2.42688-10.28243,3.78023-15.38907,1.539-5.80109,5.103-9.73116,11.395-10.8701a18.64975,18.64975,0,0,1,3.26321-.25889q17.51248-.02676,35.02253-.00892c6.481.00232,10.41481,4.67828,8.93607,10.83-2.99672,12.48149-6.09908,24.94075-9.1842,37.40307a22.96249,22.96249,0,0,1-1.15691,3.32822c-2.08669,4.94146-6.05732,7.47688-11.39867,7.65819-6.41349.216-12.84169.04887-19.26385.04887Z" transform="translate(-40.44758)"/>
          </g>
          <g>
            <path class="cls-1" d="M730.64138,134.35605c-1.195-.00183-1.44189.399-1.647,1.50694-.54154,2.8736-1.3043,5.70616-1.99324,8.5524-1.90131,7.843-3.82462,15.67838-5.7,23.528-2.83953,11.88661-5.61389,23.78874-8.4817,35.66766-.86589,3.5793-2.64546,6.5228-6.481,7.568a11.37866,11.37866,0,0,1-2.92428.36507q-51.71205.04306-72.24832-.01185c-1.80661-.00367-16.21229-.13808-17.97224-.54737,1.36693-3.98384,4.88732-17.827,5.273-19.48065q2.52748-10.90376,5.15825-21.78247c3.46593-14.35887,7.01286-28.69917,10.40134-43.0771,1.05629-4.49392,5.52348-8.62236,10.60688-8.61588M733.6,197.34583m-52.9685-62.96058v.043c-22.77363-.02223-13.11917-.17449-19.36937.05241a12.05471,12.05471,0,0,0-11.46,7.9618,24.23227,24.23227,0,0,0-1.16194,3.45957c-3.10236,12.95737-6.22308,25.91011-9.237,38.8885-1.48477,6.39634,2.46864,11.25593,8.98777,11.2596q17.60281.009,35.21041-.00953a18.07167,18.07167,0,0,0,3.27919-.26965c6.32746-1.18365,9.90886-5.27011,11.45639-11.302,1.36077-5.30884,2.54472-10.66314,3.79746-15.99886,1.81768-7.70815,3.73974-15.39078,5.40762-23.13009,1.3682-6.34991-2.49931-10.95293-8.91041-10.95477Q689.63214,134.38433,680.63149,134.38525Z" transform="translate(-40.44758)"/>
            <path class="cls-2" d="M680.63149,134.38525q8.9994,0,18,0c6.4111.00184,10.27861,4.60486,8.91041,10.95477-1.66788,7.73931-3.58994,15.42194-5.40762,23.13009-1.25274,5.33572-2.43669,10.69-3.79746,15.99886-1.54753,6.03188-5.12893,11.44629-11.45639,12.62994a18.07256,18.07256,0,0,1-3.27919.26964q-17.6064.02676-35.21041.00953c-6.51913-.00366-10.47254-6.1912-8.98777-12.58754,3.014-12.97839,6.13467-25.93113,9.237-38.8885a24.23227,24.23227,0,0,1,1.16194-3.45957,12.05471,12.05471,0,0,1,11.46-7.9618c6.44669-.22664,12.91174-.05241,19.36937-.05241Z" transform="translate(-40.44758)"/>
          </g>
        </g>
        <rect class="cls-4" x="777.0527" y="38.8457" width="45.88795" height="120.43236" transform="translate(652.07159 897.97146) rotate(-89.39687)"/>
        <g>
          <g>
            <path class="cls-1" d="M843.9769,193.24089c1.19-.01074,1.42952-.40015,1.62228-1.47368.5034-2.78212,1.229-5.52644,1.87986-8.28217,1.7964-7.59743,3.61861-15.18762,5.38922-22.78984,2.683-11.51356,5.30207-23.04086,8.01205-34.54657.8178-3.46684-1.63837-4.136,5.1963-6.79185.93213-.25748,3.13046-1.32794,4.10081-1.32794H942.625a19.33031,19.33031,0,0,1,4.761.06518,9.4573,9.4573,0,0,1,7.9319,8.53784,9.05756,9.05756,0,0,0,.27762,1.04608q.02595,2.1.053,4.20193c-.25535,1.62527-.41737,3.2703-.77962,4.87275q-2.387,10.55862-4.87228,21.09575c-3.27482,13.90858-6.63315,27.79863-9.8305,41.72464a9.68712,9.68712,0,0,1-9.653,7.65447M840.288,132.4391m53.43089,60.19666v-.04184c6.42329-.074,12.854.01854,19.26384-.27352,5.34007-.24537,9.2774-2.838,11.30243-7.82272a22.8383,22.8383,0,0,0,1.115-3.35542c2.93218-12.54992,5.8792-25.09567,8.723-37.66412,1.40233-6.195-2.58952-10.844-9.06931-10.77124q-17.51057.195-35.02.41642a18.45481,18.45481,0,0,0-3.26208.2981c-6.27582,1.21642-9.79063,5.20432-11.25674,11.047-1.29184,5.14364-2.40434,10.328-3.59167,15.49619-1.71416,7.46444-3.53384,14.9085-5.10058,22.40289-1.28691,6.14761,2.61529,10.54983,8.99067,10.477Q884.76674,192.74084,893.71885,192.63576Z" transform="translate(-40.44758)"/>
            <path class="cls-2" d="M893.71885,192.63576q-8.94958.10575-17.90546.2088c-6.37538.07281-10.27758-4.32941-8.99067-10.477,1.56674-7.49439,3.38642-14.93845,5.10058-22.40289,1.18733-5.16818,2.29983-10.35255,3.59167-15.49619,1.46611-5.84272,4.98092-9.83062,11.25674-11.047a18.45481,18.45481,0,0,1,3.26208-.2981q17.50865-.231,35.02-.41642c6.47979-.0728,10.47164,4.57628,9.06931,10.77124-2.84377,12.56845-5.79079,25.1142-8.723,37.66412a22.8383,22.8383,0,0,1-1.115,3.35542c-2.025,4.98472-5.96236,7.57735-11.30243,7.82272-6.40983.29206-12.84055.19948-19.26384.27352Z" transform="translate(-40.44758)"/>
          </g>
          <g>
            <path class="cls-1" d="M954.92742,132.63622c-1.195.01185-.63933,1.71115-.83207,2.826-.50592,2.89229-1.23282,5.74507-1.88728,8.611-1.80255,7.89766-3.63089,15.78795-5.40879,23.69211-2.69275,11.96764-4.18584,23.29081-6.90815,35.25194a12.914,12.914,0,0,1-4.10081,6.63972,15.85514,15.85514,0,0,1-5.556,2.65589,6.97453,6.97453,0,0,1-1.36694,0c-34.47088.4297-57.968.1333-71.6583.26918a24.27205,24.27205,0,0,1-5.41508-.56452c-4.63271-1.01868-7.3226-4.11124-7.97619-8.8788a9.6186,9.6186,0,0,0-.28252-1.08669c-.016-1.457-.678-1.56288-.69659-3.01861.25786-1.69067,1.001-4.97433,1.36694-6.63972,1.59494-7.31771,3.288-14.40462,4.94694-21.70845,3.2895-14.45861,6.65761-28.89918,9.86726-43.37631,1.002-4.52419,2.8677-7.95218,11.06932-9.28012m89.37159,79.11768-53.743-62.60559v.04245c-6.45651.07575-12.92409-.02394-19.36573.2783a12.04419,12.04419,0,0,0-11.3614,8.12833,24.62286,24.62286,0,0,0-1.11988,3.48707c-2.94209,13.04658-4.9417,26.21-7.79412,39.27692-1.4071,6.43875,1.64722,11.1532,8.16383,11.0804q17.60658-.1933,35.20914-.41764a18.07408,18.07408,0,0,0,3.27678-.309c6.31268-1.26365,9.84356-5.408,11.317-11.48247,1.293-5.34619,2.4091-10.736,3.59893-16.10841,1.72282-7.7616,3.54739-15.49865,5.12031-23.289,1.28926-6.3914-2.635-10.96919-9.04354-10.89577Q914.71778,134.434,905.71774,134.54093Z" transform="translate(-40.44758)"/>
            <path class="cls-2" d="M905.71774,134.54093q8.99746-.10484,18.00127-.2088c6.40858-.07342,10.33279,4.50437,9.04353,10.89577-1.57291,7.79031-3.39748,15.52736-5.1203,23.289-1.18984,5.37246-2.306,10.76222-3.59893,16.10841-1.4734,6.07449-5.00427,11.54676-11.317,12.81042a18.074,18.074,0,0,1-3.27678.309q-17.60262.23268-35.20914.41763c-6.51661.07281-8.74768-5.64824-8.25207-12.40834,4.1008-23.903,4.94028-26.23034,7.88237-39.27692a24.62286,24.62286,0,0,1,1.11988-3.48707,12.04419,12.04419,0,0,1,11.3614-8.12833c6.44164-.30224,12.90921-.20255,19.36573-.2783Z" transform="translate(-40.44758)"/>
          </g>
        </g>
        <path class="cls-3" d="M950.82661,75.53462h17.77016L939.89113,203.01727l-16.58807-9.13394Z" transform="translate(-40.44758)"/>
        <g>
          <g>
            <g>
              <path class="cls-1" d="M733.48387,195.04961c1.19011.00244-1.478-2.24486-1.273-3.31147.53676-2.76328,1.29826-5.48844,1.98106-8.22606,1.889-7.54359,3.80486-15.08009,5.67045-22.63027,2.82243-11.4326,5.58457-22.88072,8.43754-34.30624.85847-3.44222,2.62949-6.27294,6.44669-7.27932a11.61168,11.61168,0,0,1,2.90705-.35077q35.93494-.02694,71.86512.01136a24.991,24.991,0,0,1,5.37932.60014,9.42286,9.42286,0,0,1,7.82469,8.593,8.74318,8.74318,0,0,0,.2665,1.04462c0,1.39477-2.8845.71894-2.8845,2.11372-.275,1.61481-.985,3.72078-1.36694,5.31178-1.67656,6.99061-3.72741,16.92668-5.46774,23.903-3.44507,13.81176-8.93356,26.00812-12.30242,39.83833-1.05378,4.32153,1.015,7.75974-4.04008,7.75375m-89.29658-75.51366,52.68728,60.55881v-.04288c6.422,0,12.85037.167,19.26386-.049,5.34122-.18132,9.312-2.71674,11.39854-7.65807a22.94858,22.94858,0,0,0,1.157-3.32823c3.08513-12.46231,6.18749-24.92169,9.18421-37.40307,1.47874-6.15186-2.45505-10.8277-8.9362-10.83014q-17.51246-.00972-35.0224.009a18.63711,18.63711,0,0,0-3.26321.25889c-6.292,1.13881-9.85617,5.069-11.395,10.87-1.35348,5.10664-2.53252,10.25689-3.78034,15.38907-1.80537,7.41236-3.7176,14.80335-5.3757,22.24723-1.362,6.10715,2.48461,10.53607,8.86124,10.53717Z" transform="translate(-40.44758)"/>
              <path class="cls-2" d="M780.31836,193.16028h-17.908c-6.37663-.0011-10.22327-4.43-8.86124-10.53717,1.6581-7.44388,3.57033-14.83487,5.3757-22.24723,1.24782-5.13218,2.42686-10.28243,3.78034-15.38907,1.53885-5.801,5.103-9.73117,11.395-10.87a18.63711,18.63711,0,0,1,3.26321-.25889q17.51246-.02694,35.0224-.009c6.48115.00244,10.41494,4.67828,8.9362,10.83014-2.99672,12.48138-6.09908,24.94076-9.18421,37.40307a22.94858,22.94858,0,0,1-1.157,3.32823c-2.08656,4.94133-6.05732,7.47675-11.39854,7.65807-6.41349.216-12.84182.049-19.26386.049Z" transform="translate(-40.44758)"/>
            </g>
            <g>
              <path class="cls-1" d="M846.08679,198.41256m-52.96849-62.9607v.043c-6.45763,0-12.92281-.17423-19.36937.05253a12.05469,12.05469,0,0,0-11.46,7.9618,24.23226,24.23226,0,0,0-1.16192,3.45944c-3.10238,12.9575-5.49206,27.13491-8.506,40.1133-1.4849,6.39646-13.66936,17.26328,8.25671,10.03481q17.60263.009,35.21042-.00953a18.06245,18.06245,0,0,0,3.27918-.26965c6.32747-1.18353,9.90887-5.27011,11.45627-11.302,1.3609-5.30884,2.54485-10.663,3.79759-15.99873,1.81767-7.70828,3.73973-15.3909,5.40764-23.13009,1.36817-6.34991-2.49934-10.95306-8.91041-10.95489Q802.11894,135.45112,793.1183,135.45186Z" transform="translate(-40.44758)"/>
              <path class="cls-2" d="M792.16954,135.45186q8.79044,0,17.58206,0c6.26219.00183,11.3357-3.98409,11.21614,2.49614-.13632,7.38945-4.58846,24.0521-6.83468,31.87066-1.51269,5.26531-2.77151,10.62649-4.1008,15.93534-1.36694,6.63972-5.57833,9.9-11.75885,11.08357a17.24338,17.24338,0,0,1-3.203.26965q-17.19772.02694-34.39273.00953c-6.36774-.00355-8.14016-6.29424-6.68975-12.6907,2.944-12.97839,3.90291-24.49991,6.93324-37.45741a24.63535,24.63535,0,0,1,1.13494-3.45944,11.78867,11.78867,0,0,1,11.1939-7.9618c6.29686-.22676,12.61189-.05253,18.91956-.05253Z" transform="translate(-40.44758)"/>
            </g>
          </g>
          <rect class="cls-4" x="699.08082" y="97.20956" width="106.55839" height="51.3144"/>
          <path class="cls-3" d="M839.94234,65.78474l19.15693,2.1023L826.43548,201.68933h-20.504Z" transform="translate(-40.44758)"/>
          <rect class="cls-4" x="693.15241" y="41.00806" width="133.64206" height="77.02077"/>
        </g>
        <polyline class="cls-3" points="877.764 197.482 874.839 212.313 453.823 212.313 453.701 197.482"/>
        <path class="cls-3" d="M749.8871,118.02884h20.504l-21.871,86.31638-21.871,6.63972Z" transform="translate(-40.44758)"/>
      </g>
      <polygon class="cls-4" points="936.351 221.83 738.574 221.83 442.887 212.313 936.351 212.313 936.351 221.83"/>
      <g>
        <path class="cls-1" d="M478.15992,118.10455c-.59688,2.54136-1.15452,4.94141-1.72687,7.33758-.56494,2.36981-1.20118,4.72322-1.6899,7.10944-.20387.9903-.58707,1.28793-1.56225,1.28354-8.57752-.0385-17.15566-.02209-25.73318-.02209q-17.51076,0-35.02617.00387a18.72766,18.72766,0,0,0-11.0376,3.22887,13.90211,13.90211,0,0,0-5.82152,8.53224c-5.16565,21.86612-10.41116,43.71079-15.599,65.57174-.21128.89186-.55147,1.16443-1.42717,1.16314q-52.368-.03023-104.74009-.02648a32.00432,32.00432,0,0,1-12.22582-1.97814c-5.47831-2.229-8.18325-6.6103-7.18355-12.57482,1.14962-6.86155,2.638-13.66871,4.16658-20.45508,3.9172-17.39388,7.94316-34.76271,11.9138-52.14394,1.16986-5.12369,3.52983-7.08607,8.68869-7.08981q21.8787-.01143,43.756-.00259c9.7099,0,19.42044-.04728,29.13159.03721a27.22674,27.22674,0,0,1,6.48957.808c4.78006,1.22877,7.42439,4.73007,7.80018,9.77186.34383,4.59817-.56746,9.023-1.62124,13.43773q-3.56844,14.95193-7.09262,29.91342c-.24686,1.06147-.69145,1.29426-1.68625,1.29245q-36.33017-.04263-72.661-.03914a5.646,5.646,0,0,0-4.76107,1.94016,5.47392,5.47392,0,0,0-1.15753,2.093c-.75283,3.35624-1.55182,6.71506-2.02959,10.11935-.70982,5.05806,2.44536,8.78207,7.41822,9.06588.56619.03152,1.13238.04289,1.6992.04289q39.10724.00193,78.21472.03036c1.2379,0,1.6997-.3369,1.9969-1.61605q5.74051-24.69065,11.60868-49.34977c1.18157-5.00575,2.34589-10.01653,3.54329-15.01839,1.08937-4.54728,3.21165-8.35139,7.42426-10.5981a18.30838,18.30838,0,0,1,8.779-1.91445q40.52586-.04069,81.04869-.01447C477.35414,118.044,477.65384,118.07548,478.15992,118.10455ZM312.06775,157.50962q12.6914,0,25.3833-.00258a5.54684,5.54684,0,0,0,5.59614-4.61459c.58707-2.72118,1.18395-5.44108,1.75128-8.16717,1.02674-4.93947-1.50327-9.30384-6.14813-10.43158a18.415,18.415,0,0,0-4.26241-.46105q-17.168-.05309-34.33535-.00193a44.89229,44.89229,0,0,0-5.63966.40058,10.434,10.434,0,0,0-8.99153,8.29959c-.73874,3.40106-1.42466,6.81414-2.10995,10.22657-.65524,3.26478.5521,4.75152,3.82575,4.75216Q299.60185,157.51059,312.06775,157.50962Z" transform="translate(-40.44758)"/>
        <path class="cls-2" d="M312.06775,157.50962q-12.46655,0-24.93056,0c-3.27365-.00064-4.481-1.48738-3.82575-4.75216.68529-3.41243,1.37121-6.82551,2.10995-10.22657a10.434,10.434,0,0,1,8.99153-8.29959,44.89229,44.89229,0,0,1,5.63966-.40058q17.168-.05388,34.33535.00193a18.415,18.415,0,0,1,4.26241.46105c4.64486,1.12774,7.17487,5.49211,6.14813,10.43158-.56733,2.72609-1.16421,5.446-1.75128,8.16717a5.54684,5.54684,0,0,1-5.59614,4.61459Q324.75965,157.51847,312.06775,157.50962Z" transform="translate(-40.44758)"/>
      </g>
    </g>
    <path class="cls-5" d="M121.91256,164.94945c-3.37543-7.63021-8.76288-13.89976-14.46371-20.53817-9.549-11.11608-20.08221-23.4352-24.61136-45.15858-.32553-2.04857-1.68034-20.24351,7.5431-26.17539,0,0-18.13486,9.876-22.22449,37.289a64.75209,64.75209,0,0,1-1.59616,6.3138A84.60311,84.60311,0,0,0,99.445,239.35882a78.95449,78.95449,0,0,0,19.57064-23.84691C128.18211,198.74307,127.40953,177.38409,121.91256,164.94945Z" transform="translate(-40.44758)"/>
    <path class="cls-6" d="M221.71277,163.51229c0-1.5708-.051-3.13024-.1335-4.68154a79.785,79.785,0,0,0-27.68982-4.09193c-19.11161.45764-37.22835,11.80617-45.24565,22.77739-4.92519,6.739-7.66173,14.53944-10.55859,22.79981-4.84288,13.80221-10.23324,29.04449-26.7042,43.80085-3.27957,2.42511-18.771,10.891-27.85943,5.67534,0,0,19.38306,13.06266,48.7096,1.47632a99.74151,99.74151,0,0,1,14.76389-3.6988q3.03116-.35349,5.992-.91745c.39146-.04946.62248-.0742.62248-.0742l.04363-.04578A84.67841,84.67841,0,0,0,221.71277,163.51229Z" transform="translate(-40.44758)"/>
    <path class="cls-7" d="M220.91319,146.47783s19.70856,8.11474,20.79023,19.68c0,0-.42615-20.28391-21.81048-37.03847l-.03441-.07589a67.78327,67.78327,0,0,1-11.40336-10.99365,85.28219,85.28219,0,0,0-6.31-8.64212c-.22352-.35334-.33613-.54752-.33613-.54752l-.04194.0974A84.64567,84.64567,0,0,0,92.9266,91.25334a78.85486,78.85486,0,0,0,10.88873,29.04234c9.945,16.3181,28.82852,26.33516,42.33957,27.79859a47.1575,47.1575,0,0,0,5.08127.26331c6.535,0,13.04761-1.22638,19.93673-2.52712,7.88967-1.48677,16.0465-3.02455,25.38546-3.02455a81.59561,81.59561,0,0,1,23.40218,3.35761Z" transform="translate(-40.44758)"/>
  </g>
  <rect class="cls-8" width="944.55242" height="339"/>
</svg>
