<svg id="Layer_1" data-name="Layer 1" xmlns="http://www.w3.org/2000/svg" viewBox="0 0 92.30388 89.21933">
  <defs>
    <style>
      .cls-1 {
        fill: #dddc25;
      }

      .cls-2 {
        fill: #a1c52a;
      }

      .cls-3 {
        fill: #51ad32;
      }
    </style>
  </defs>
  <title>logoErco</title>
  <path class="cls-1" d="M37.59237,50.11122c-1.64579-3.72033-4.2726-6.77724-7.05221-10.014-4.65589-5.42-9.79169-11.42654-12-22.01842C18.38143,17.08,17.72085,8.20847,22.218,5.3162c0,0-8.8422,4.81536-10.83622,18.18139a31.56893,31.56893,0,0,1-.77826,3.07848A41.2508,41.2508,0,0,0,26.63765,86.39175a38.49681,38.49681,0,0,0,9.54226-11.62728C40.64928,66.58831,40.27259,56.17411,37.59237,50.11122Z" transform="translate(-3.69612 -5.3162)"/>
  <path class="cls-2" d="M86.253,49.41049c0-.76589-.02487-1.52624-.06509-2.28262a38.9015,38.9015,0,0,0-13.501-1.99515c-9.31843.22314-18.15179,5.75646-22.06087,11.1058-2.40142,3.28582-3.7357,7.08915-5.14816,11.11674-2.36129,6.72968-4.98952,14.16151-13.02043,21.35641-1.599,1.18244-9.15238,5.31025-13.5837,2.76719,0,0,9.45079,6.36909,23.74983.71982a48.63062,48.63062,0,0,1,7.19857-1.80346q1.47793-.17235,2.92156-.44733c.19087-.02412.30351-.03618.30351-.03618l.02128-.02232A41.28751,41.28751,0,0,0,86.253,49.41049Z" transform="translate(-3.69612 -5.3162)"/>
  <path class="cls-3" d="M85.8631,41.10483S95.4726,45.06142,96,50.70042c0,0-.20778-9.89-10.63435-18.05922l-.01678-.037a33.05015,33.05015,0,0,1-5.56005-5.36028,41.58066,41.58066,0,0,0-3.07661-4.21373c-.109-.17228-.16389-.267-.16389-.267l-.02045.04749A41.27151,41.27151,0,0,0,23.4594,14.17848a38.44793,38.44793,0,0,0,5.30913,14.16046c4.849,7.95638,14.0562,12.8405,20.64392,13.554a22.99117,22.99117,0,0,0,2.47753.12839,52.77875,52.77875,0,0,0,9.72075-1.23217,64.526,64.526,0,0,1,12.37744-1.47471,39.78429,39.78429,0,0,1,11.41044,1.6371Z" transform="translate(-3.69612 -5.3162)"/>
</svg>
