<?xml version="1.0" encoding="utf-8"?>
<!-- Generator: Adobe Illustrator 23.0.2, SVG Export Plug-In . SVG Version: 6.00 Build 0)  -->
<svg version="1.1" id="Capa_1" xmlns="http://www.w3.org/2000/svg" xmlns:xlink="http://www.w3.org/1999/xlink" x="0px" y="0px"
	 viewBox="0 0 985 351" style="enable-background:new 0 0 985 351;" xml:space="preserve">
<style type="text/css">
	.st0{fill-rule:evenodd;clip-rule:evenodd;fill:#5D5D5F;}
	.st1{fill-rule:evenodd;clip-rule:evenodd;fill:#FFFFFF;}
	.st2{fill:#5D5D5F;}
	.st3{fill:#FFFFFF;}
	.st4{fill:none;}
</style>
<g>
	<g>
		<g>
			<path class="st0" d="M612.04,122.82c-0.35,2.22-0.59,4.47-1.08,6.65c-2.17,9.6-4.38,19.19-6.63,28.78
				c-4.45,18.97-9.01,37.92-13.37,56.91c-1.36,5.94-6.06,10.33-12.6,10.32c-75.46-0.09-151.28-1.23-225.94-0.64
				c-4.98,0-10.15-0.26-14.41-3.11c-4.98-3.33-7.18-8.3-6.41-14.1c0.92-6.9,2.58-13.71,4.13-20.51
				c5.6-24.43,11.27-48.84,16.95-73.25c1.61-6.9,6.42-10.88,13.28-10.89c33.36-0.04,66.72-0.02,100.08-0.01
				c0.33,0,0.67,0.06,1.18,0.1c-0.52,2.32-1.02,4.55-1.54,6.78c-0.93,3.96-1.94,7.9-2.76,11.89c-0.29,1.37-0.8,1.74-2.11,1.74
				c-22.96-0.04-45.91-0.04-68.87-0.02c-3.38,0-6.73,0.31-9.9,1.67c-5.01,2.14-8.35,5.82-9.65,11.33
				c-4.4,18.68-8.81,37.35-13.19,56.03c-1.41,6.01,1.96,10.97,8.21,12.05c1.48,0.26,3.01,0.37,4.51,0.37
				c31.6,0.02,94.81,0.05,94.81,0.05l23.52-103.73c0,0,73.42,1.7,104.39,1.76c2.32,0,4.69,0.29,6.95,0.82
				c5.94,1.41,9.35,5.52,10.11,11.81c0.06,0.49,0.23,0.96,0.34,1.43C612.04,118.98,612.04,120.9,612.04,122.82z M531.03,204.93
				c0-0.02,0-0.04,0-0.06c8.3,0,16.61,0.23,24.9-0.07c6.9-0.25,12.04-3.73,14.73-10.52c0.59-1.49,1.13-3.01,1.5-4.57
				c3.99-17.12,8-34.23,11.87-51.38c1.91-8.45-3.17-14.87-11.55-14.88c-15.09-0.01-30.18-0.01-45.27,0.01
				c-1.4,0-2.84,0.09-4.22,0.36c-8.13,1.56-12.74,6.96-14.73,14.93c-1.75,7.01-3.27,14.09-4.88,21.14
				c-2.34,10.18-4.81,20.34-6.95,30.56c-1.76,8.39,3.21,14.47,11.45,14.47C515.59,204.94,523.31,204.93,531.03,204.93z"/>
		</g>
		<polygon class="st1" points="584.54,276.6 458.43,245.44 499.01,66.96 629.08,97.49 		"/>
		<g>
			<path class="st2" d="M501.78,48.08l23.8-0.05l-37.11,169.94l-25.24-0.38L501.78,48.08z"/>
		</g>
		<polygon class="st0" points="488.29,224.67 389.52,224.84 390.11,206.14 487.7,206.14 		"/>
		<g>
			<g>
				<path class="st0" d="M512.51,199.13c1.54,0,1.86-0.49,2.12-1.87c0.69-3.57,1.68-7.09,2.56-10.63
					c2.44-9.75,4.92-19.49,7.33-29.25c3.65-14.78,7.22-29.58,10.91-44.35c1.11-4.45,3.4-8.11,8.33-9.41
					c1.21-0.32,2.5-0.45,3.76-0.45c30.97-0.02,61.93-0.03,92.9,0.01c2.32,0,4.69,0.27,6.95,0.78c5.94,1.33,10.73,5.88,10.73,12.75
					c0,0-1.77,15.45-7.99,38.46c-4.45,17.85-9.01,35.68-13.37,53.56c-1.36,5.59-6.06,9.72-12.6,9.71 M508.71,120.81 M576.82,199.09
					c0-0.02,0-0.04,0-0.06c8.3,0,16.61,0.22,24.9-0.06c6.9-0.23,12.04-3.51,14.73-9.9c0.59-1.4,1.13-2.84,1.5-4.3
					c3.99-16.11,8-32.22,11.87-48.35c1.91-7.95-3.17-14-11.55-14c-15.09-0.01-30.18-0.01-45.27,0.01c-1.41,0-2.84,0.09-4.22,0.33
					c-8.13,1.47-12.74,6.55-14.73,14.05c-1.75,6.6-3.27,13.26-4.89,19.89c-2.33,9.58-4.81,19.14-6.95,28.76
					c-1.76,7.89,3.21,13.62,11.45,13.62C561.39,199.09,569.11,199.09,576.82,199.09z"/>
				<path class="st1" d="M575,198.71c-7.72,0-15.43,0-23.15,0c-8.24,0-13.22-5.73-11.45-13.62c2.14-9.62,4.62-19.18,6.95-28.76
					c1.61-6.63,3.14-13.29,4.89-19.89c1.99-7.5,6.6-12.58,14.73-14.05c1.38-0.25,2.81-0.33,4.22-0.33
					c15.09-0.02,30.18-0.02,45.27-0.01c8.38,0,13.46,6.05,11.55,14c-3.87,16.13-7.88,32.24-11.87,48.35c-0.37,1.47-0.91,2.9-1.5,4.3
					c-2.7,6.39-7.83,9.67-14.73,9.9c-8.29,0.28-16.6,0.06-24.9,0.06C575,198.67,575,198.69,575,198.71z"/>
			</g>
			<g>
				<path class="st0" d="M656.2,124.07c-1.54,0-1.86,0.52-2.13,1.95c-0.7,3.71-1.69,7.38-2.58,11.06
					c-2.46,10.14-4.94,20.27-7.37,30.41c-3.67,15.37-7.26,30.75-10.96,46.11c-1.12,4.63-3.42,8.43-8.38,9.78
					c-1.21,0.33-2.52,0.47-3.78,0.47c-44.56,0.04-75.7,0.01-93.39-0.02c-2.34,0-20.96-0.18-23.23-0.71
					c1.77-5.15,6.32-23.04,6.82-25.18c2.18-9.4,4.41-18.78,6.67-28.16c4.48-18.56,9.07-37.1,13.45-55.68
					c1.37-5.81,7.14-11.15,13.71-11.14 M660.02,205.5 M591.55,124.11c0,0.02,0,0.04,0,0.06c-29.44-0.03-16.96-0.23-25.04,0.07
					c-6.94,0.24-12.1,3.65-14.81,10.29c-0.59,1.45-1.14,2.95-1.5,4.47c-4.01,16.75-8.04,33.49-11.94,50.27
					c-1.92,8.27,3.19,14.55,11.62,14.56c15.17,0.01,30.34,0.01,45.52-0.01c1.41,0,2.85-0.09,4.24-0.35
					c8.18-1.53,12.81-6.81,14.81-14.61c1.76-6.86,3.29-13.78,4.91-20.68c2.35-9.96,4.83-19.9,6.99-29.9
					c1.77-8.21-3.23-14.16-11.52-14.16C607.06,124.11,599.31,124.11,591.55,124.11z"/>
				<path class="st1" d="M591.55,124.11c7.76,0,15.51,0,23.27,0c8.29,0,13.29,5.95,11.52,14.16c-2.16,10-4.64,19.94-6.99,29.9
					c-1.62,6.9-3.15,13.82-4.91,20.68c-2,7.8-6.63,14.8-14.81,16.33c-1.39,0.26-2.83,0.35-4.24,0.35
					c-15.17,0.02-30.35,0.02-45.52,0.01c-8.43,0-13.54-8-11.62-16.27c3.9-16.78,7.93-33.52,11.94-50.27
					c0.37-1.52,0.91-3.02,1.5-4.47c2.71-6.64,7.87-10.05,14.81-10.29c8.33-0.29,16.69-0.07,25.04-0.07
					C591.55,124.14,591.55,124.13,591.55,124.11z"/>
			</g>
		</g>
		
			<rect x="716.19" y="0.61" transform="matrix(0.0105 -0.9999 0.9999 0.0105 659.5576 823.4299)" class="st1" width="59.32" height="155.68"/>
		<g>
			<g>
				<path class="st0" d="M802.7,200.19c1.54-0.01,1.85-0.52,2.1-1.9c0.65-3.6,1.59-7.14,2.43-10.71c2.32-9.82,4.68-19.63,6.97-29.46
					c3.47-14.88,6.85-29.78,10.36-44.66c1.06-4.48-2.12-5.35,6.72-8.78c1.2-0.33,4.05-1.72,5.3-1.72c31.81,0,61.85,0,93.65,0
					c2.32-0.02,3.89-0.4,6.15,0.08c5.96,1.27,9.41,5.11,10.25,11.04c0.07,0.46,0.24,0.9,0.36,1.35c0.02,1.81,0.05,3.62,0.07,5.43
					c-0.33,2.1-0.54,4.23-1.01,6.3c-2.06,9.1-4.16,18.19-6.3,27.27c-4.23,17.98-8.57,35.93-12.71,53.94
					c-1.29,5.63-5.94,9.83-12.48,9.89 M797.93,121.59 M867,199.41c0-0.02,0-0.04,0-0.05c8.3-0.1,16.62,0.02,24.9-0.35
					c6.9-0.32,11.99-3.67,14.61-10.11c0.57-1.41,1.09-2.86,1.44-4.34c3.79-16.22,7.6-32.44,11.28-48.69
					c1.81-8.01-3.35-14.02-11.72-13.92c-15.09,0.17-30.18,0.34-45.27,0.54c-1.41,0.02-2.84,0.12-4.22,0.39
					c-8.11,1.57-12.66,6.73-14.55,14.28c-1.67,6.65-3.11,13.35-4.64,20.03c-2.22,9.65-4.57,19.27-6.59,28.96
					c-1.66,7.95,3.38,13.64,11.62,13.54C851.57,199.59,859.29,199.5,867,199.41z"/>
				<path class="st1" d="M867,199.41c-7.71,0.09-15.43,0.18-23.15,0.27c-8.24,0.09-13.29-5.6-11.62-13.54
					c2.03-9.69,4.38-19.31,6.59-28.96c1.53-6.68,2.97-13.38,4.64-20.03c1.9-7.55,6.44-12.71,14.55-14.28
					c1.38-0.27,2.81-0.37,4.22-0.39c15.09-0.2,30.18-0.37,45.27-0.54c8.38-0.09,13.54,5.92,11.72,13.92
					c-3.68,16.25-7.49,32.46-11.28,48.69c-0.35,1.48-0.87,2.93-1.44,4.34c-2.62,6.44-7.71,9.8-14.61,10.11
					c-8.29,0.38-16.6,0.26-24.9,0.35C867,199.37,867,199.39,867,199.41z"/>
			</g>
			<g>
				<path class="st0" d="M946.13,121.85c-1.54,0.02-0.83,2.21-1.08,3.65c-0.65,3.74-1.59,7.43-2.44,11.13
					c-2.33,10.21-4.69,20.41-6.99,30.63c-3.48,15.47-5.41,30.11-8.93,45.57c-0.6,2.63-2.39,6.15-5.3,8.58
					c-2.25,1.88-5.52,2.97-7.18,3.43c-0.42,0.12-0.5-0.02-1.77,0c-44.56,0.56-74.93,0.17-92.63,0.35c-2.34,0.02-4.72-0.23-7-0.73
					c-5.99-1.32-9.47-5.31-10.31-11.48c-0.07-0.48-0.24-0.94-0.37-1.4c-0.02-1.88-0.88-2.02-0.9-3.9c0.33-2.19,1.29-6.43,1.77-8.58
					c2.06-9.46,4.25-18.62,6.39-28.06c4.25-18.69,8.61-37.36,12.76-56.07c1.3-5.85,3.71-10.28,14.31-12 M951.99,205.24
					 M882.51,124.31c0,0.02,0,0.03,0,0.05c-8.35,0.1-16.71-0.03-25.03,0.36c-6.94,0.32-12.06,3.81-14.69,10.51
					c-0.57,1.47-1.1,2.97-1.45,4.51c-3.8,16.86-6.39,33.88-10.08,50.77c-1.82,8.32,2.13,14.42,10.55,14.32
					c15.17-0.17,30.34-0.34,45.51-0.54c1.41-0.02,2.85-0.12,4.24-0.4c8.16-1.63,12.72-6.99,14.63-14.84
					c1.67-6.91,3.11-13.88,4.65-20.82c2.23-10.03,4.59-20.03,6.62-30.11c1.67-8.26-3.41-14.18-11.69-14.08
					C898.03,124.13,890.27,124.22,882.51,124.31z"/>
				<path class="st1" d="M882.51,124.31c7.75-0.09,15.51-0.18,23.27-0.27c8.28-0.09,13.36,5.82,11.69,14.08
					c-2.03,10.07-4.39,20.07-6.62,30.11c-1.54,6.94-2.98,13.91-4.65,20.82c-1.9,7.85-6.47,14.93-14.63,16.56
					c-1.38,0.28-2.82,0.38-4.24,0.4c-15.17,0.2-30.34,0.37-45.51,0.54c-8.42,0.09-11.31-7.3-10.67-16.04
					c5.3-30.9,6.39-33.91,10.19-50.77c0.35-1.53,0.87-3.04,1.45-4.51c2.63-6.7,7.75-10.18,14.69-10.51
					c8.33-0.39,16.69-0.26,25.03-0.36C882.51,124.34,882.51,124.33,882.51,124.31z"/>
			</g>
		</g>
		<g>
			<path class="st2" d="M940.82,48.03h22.97l-37.11,164.79l-21.44-11.81L940.82,48.03z"/>
		</g>
		<g>
			<g>
				<g>
					<path class="st0" d="M659.87,202.53c1.54,0-1.91-2.9-1.65-4.28c0.69-3.57,1.68-7.09,2.56-10.63
						c2.44-9.75,4.92-19.49,7.33-29.25c3.65-14.78,7.22-29.58,10.91-44.35c1.11-4.45,3.4-8.11,8.33-9.41
						c1.21-0.32,2.5-0.45,3.76-0.45c30.97-0.02,61.93-0.03,92.9,0.01c2.32,0,4.69,0.27,6.95,0.78c5.94,1.33,9.35,5.2,10.11,11.11
						c0.06,0.46,0.23,0.9,0.34,1.35c0,1.8-3.73,0.93-3.73,2.73c-0.36,2.09-1.27,4.81-1.77,6.87c-2.17,9.04-4.82,21.88-7.07,30.9
						c-4.45,17.85-11.55,33.62-15.9,51.5c-1.36,5.59,1.31,10.03-5.22,10.02 M652.31,121.8 M720.41,200.09c0-0.02,0-0.04,0-0.06
						c8.3,0,16.61,0.22,24.9-0.06c6.9-0.23,12.04-3.51,14.73-9.9c0.59-1.4,1.13-2.84,1.5-4.3c3.99-16.11,8-32.22,11.87-48.35
						c1.91-7.95-3.17-14-11.55-14c-15.09-0.01-30.18-0.01-45.27,0.01c-1.41,0-2.84,0.09-4.22,0.33
						c-8.13,1.47-12.74,6.55-14.73,14.05c-1.75,6.6-3.27,13.26-4.89,19.89c-2.33,9.58-4.81,19.14-6.95,28.76
						c-1.76,7.89,3.21,13.62,11.45,13.62C704.98,200.09,712.7,200.09,720.41,200.09z"/>
					<path class="st1" d="M720.41,200.09c-7.72,0-15.43,0-23.15,0c-8.24,0-13.22-5.73-11.45-13.62c2.14-9.62,4.62-19.18,6.95-28.76
						c1.61-6.63,3.14-13.29,4.89-19.89c1.99-7.5,6.6-12.58,14.73-14.05c1.38-0.25,2.81-0.33,4.22-0.33
						c15.09-0.02,30.18-0.02,45.27-0.01c8.38,0,13.46,6.05,11.55,14c-3.87,16.13-7.88,32.24-11.87,48.35
						c-0.37,1.47-0.91,2.9-1.5,4.3c-2.7,6.39-7.83,9.67-14.73,9.9c-8.29,0.28-16.6,0.06-24.9,0.06
						C720.41,200.05,720.41,200.07,720.41,200.09z"/>
				</g>
				<g>
					<path class="st0" d="M805.43,206.87 M736.96,125.49c0,0.02,0,0.04,0,0.06c-8.35,0-16.71-0.23-25.04,0.07
						c-6.94,0.24-12.1,3.65-14.81,10.29c-0.59,1.45-1.14,2.95-1.5,4.47c-4.01,16.75-7.1,35.08-11,51.85
						c-1.92,8.27-17.67,22.32,10.67,12.97c15.17,0.01,30.34,0.01,45.52-0.01c1.41,0,2.85-0.09,4.24-0.35
						c8.18-1.53,12.81-6.81,14.81-14.61c1.76-6.86,3.29-13.78,4.91-20.68c2.35-9.96,4.83-19.9,6.99-29.9
						c1.77-8.21-3.23-14.16-11.52-14.16C752.47,125.49,744.71,125.49,736.96,125.49z"/>
					<path class="st1" d="M735.73,125.49c7.58,0,15.15,0,22.73,0c8.09,0,14.65-5.15,14.5,3.23c-0.18,9.55-5.93,31.09-8.84,41.2
						c-1.96,6.81-3.58,13.74-5.3,20.6c-1.77,8.58-7.21,12.8-15.2,14.33c-1.36,0.26-2.76,0.35-4.14,0.35
						c-14.82,0.02-29.64,0.02-44.46,0.01c-8.23,0-10.52-8.14-8.65-16.4c3.81-16.78,5.05-31.67,8.96-48.42
						c0.36-1.52,0.89-3.02,1.47-4.47c2.65-6.64,7.69-10.05,14.47-10.29c8.14-0.29,16.3-0.07,24.46-0.07
						C735.73,125.52,735.73,125.5,735.73,125.49z"/>
				</g>
			</g>
			<rect x="667.68" y="76.05" class="st3" width="137.75" height="66.33"/>
			<g>
				<path class="st2" d="M797.49,35.43l24.76,2.72l-42.22,172.96h-26.51L797.49,35.43z"/>
			</g>
			<rect x="660.02" y="3.4" class="st3" width="172.76" height="99.56"/>
		</g>
		<polyline class="st2" points="898.66,205.67 894.88,224.84 350.65,224.84 350.49,205.67 		"/>
		<g>
			<path class="st2" d="M681.08,102.96h26.51l-28.27,111.58l-28.27,8.58L681.08,102.96z"/>
		</g>
	</g>
	<polygon class="st3" points="974.4,237.15 718.74,237.15 336.51,224.84 974.4,224.84 	"/>
	<g>
		<path class="st0" d="M329.82,103.06c-0.77,3.29-1.49,6.39-2.23,9.49c-0.73,3.06-1.55,6.11-2.18,9.19
			c-0.26,1.28-0.76,1.66-2.02,1.66c-11.09-0.05-22.18-0.03-33.26-0.03c-15.09,0-30.19-0.01-45.28,0.01
			c-5.13,0.01-9.96,1.16-14.27,4.17c-3.87,2.7-6.4,6.26-7.53,11.03c-6.68,28.27-13.46,56.5-20.16,84.76
			c-0.27,1.15-0.71,1.51-1.84,1.5c-45.13-0.03-90.26-0.01-135.39-0.03c-5.39,0-10.73-0.49-15.8-2.56
			c-7.08-2.88-10.58-8.54-9.29-16.26c1.49-8.87,3.41-17.67,5.39-26.44c5.06-22.48,10.27-44.94,15.4-67.41
			c1.51-6.62,4.56-9.16,11.23-9.16c18.85-0.01,37.71,0,56.56,0c12.55,0,25.1-0.06,37.66,0.05c2.8,0.02,5.67,0.35,8.39,1.04
			c6.18,1.59,9.6,6.11,10.08,12.63c0.44,5.94-0.73,11.66-2.1,17.37c-3.08,12.89-6.16,25.77-9.17,38.67
			c-0.32,1.37-0.89,1.67-2.18,1.67c-31.31-0.04-62.62-0.02-93.93-0.05c-2.43,0-4.57,0.55-6.15,2.51c-0.64,0.79-1.28,1.73-1.5,2.71
			c-0.97,4.34-2.01,8.68-2.62,13.08c-0.92,6.54,3.16,11.35,9.59,11.72c0.73,0.04,1.46,0.06,2.2,0.06c33.7,0,67.4-0.01,101.11,0.04
			c1.6,0,2.2-0.44,2.58-2.09c4.95-21.28,9.99-42.53,15.01-63.79c1.53-6.47,3.03-12.95,4.58-19.41c1.41-5.88,4.15-10.8,9.6-13.7
			c3.56-1.9,7.42-2.47,11.35-2.47c34.92-0.04,69.85-0.02,104.77-0.02C328.78,102.98,329.17,103.02,329.82,103.06z M115.12,154
			c10.94,0,21.88,0.01,32.81,0c3.67,0,6.44-2.31,7.23-5.97c0.76-3.52,1.53-7.03,2.26-10.56c1.33-6.39-1.94-12.03-7.95-13.48
			c-1.78-0.43-3.67-0.59-5.51-0.6c-14.8-0.05-29.59-0.05-44.38,0c-2.43,0.01-4.88,0.2-7.29,0.52c-5.87,0.76-10.36,4.93-11.62,10.73
			c-0.95,4.4-1.84,8.81-2.73,13.22c-0.85,4.22,0.71,6.14,4.95,6.14C93.63,154,104.37,154,115.12,154z"/>
		<path class="st1" d="M115.12,154c-10.74,0-21.49,0-32.23,0c-4.23,0-5.79-1.92-4.95-6.14c0.89-4.41,1.77-8.82,2.73-13.22
			c1.26-5.8,5.75-9.97,11.62-10.73c2.41-0.31,4.86-0.51,7.29-0.52c14.8-0.05,29.59-0.04,44.38,0c1.84,0.01,3.73,0.16,5.51,0.6
			c6,1.46,9.27,7.1,7.95,13.48c-0.73,3.52-1.5,7.04-2.26,10.56c-0.79,3.66-3.56,5.96-7.23,5.97C136.99,154.01,126.05,154,115.12,154
			z"/>
	</g>
</g>
<rect x="-236" y="-49.61" class="st4" width="1221" height="438.22"/>
</svg>
